<mxfile host="app.diagrams.net" modified="2023-08-22T19:18:33.219Z" agent="Mozilla/5.0 (Windows NT 10.0; Win64; x64) AppleWebKit/537.36 (KHTML, like Gecko) Chrome/116.0.0.0 Safari/537.36" version="21.6.9" etag="c0zn0_q9FvSKZyn46BA6" type="device">
  <diagram id="yYUCJ2KsFfgBVZtYYiMK" name="PÃ¡gina-1">
    <mxGraphModel dx="1412" dy="550" grid="1" gridSize="10" guides="1" tooltips="1" connect="1" arrows="1" fold="1" page="1" pageScale="1" pageWidth="827" pageHeight="1169" math="0" shadow="0">
      <root>
        <mxCell id="0" />
        <mxCell id="1" parent="0" />
        <mxCell id="COdG1VF7H0o1-ycZzSNf-34" value="" style="edgeStyle=orthogonalEdgeStyle;rounded=0;orthogonalLoop=1;jettySize=auto;html=1;" edge="1" parent="1" source="COdG1VF7H0o1-ycZzSNf-1" target="COdG1VF7H0o1-ycZzSNf-33">
          <mxGeometry relative="1" as="geometry" />
        </mxCell>
        <mxCell id="COdG1VF7H0o1-ycZzSNf-41" style="edgeStyle=orthogonalEdgeStyle;rounded=0;orthogonalLoop=1;jettySize=auto;html=1;exitX=0;exitY=0;exitDx=0;exitDy=0;entryX=1;entryY=0.5;entryDx=0;entryDy=0;" edge="1" parent="1" source="COdG1VF7H0o1-ycZzSNf-1" target="COdG1VF7H0o1-ycZzSNf-37">
          <mxGeometry relative="1" as="geometry">
            <Array as="points">
              <mxPoint x="370" y="225" />
            </Array>
          </mxGeometry>
        </mxCell>
        <mxCell id="COdG1VF7H0o1-ycZzSNf-43" style="edgeStyle=orthogonalEdgeStyle;rounded=0;orthogonalLoop=1;jettySize=auto;html=1;exitX=0;exitY=1;exitDx=0;exitDy=0;entryX=1;entryY=0.5;entryDx=0;entryDy=0;" edge="1" parent="1" source="COdG1VF7H0o1-ycZzSNf-1" target="COdG1VF7H0o1-ycZzSNf-38">
          <mxGeometry relative="1" as="geometry" />
        </mxCell>
        <mxCell id="COdG1VF7H0o1-ycZzSNf-47" style="edgeStyle=orthogonalEdgeStyle;rounded=0;orthogonalLoop=1;jettySize=auto;html=1;exitX=0.25;exitY=0;exitDx=0;exitDy=0;entryX=1;entryY=0.5;entryDx=0;entryDy=0;" edge="1" parent="1" source="COdG1VF7H0o1-ycZzSNf-1" target="COdG1VF7H0o1-ycZzSNf-46">
          <mxGeometry relative="1" as="geometry" />
        </mxCell>
        <mxCell id="COdG1VF7H0o1-ycZzSNf-1" value="" style="rounded=0;whiteSpace=wrap;html=1;" vertex="1" parent="1">
          <mxGeometry x="370" y="260" width="120" height="40" as="geometry" />
        </mxCell>
        <mxCell id="COdG1VF7H0o1-ycZzSNf-12" style="edgeStyle=orthogonalEdgeStyle;rounded=0;orthogonalLoop=1;jettySize=auto;html=1;" edge="1" parent="1" source="COdG1VF7H0o1-ycZzSNf-2" target="COdG1VF7H0o1-ycZzSNf-5">
          <mxGeometry relative="1" as="geometry" />
        </mxCell>
        <mxCell id="COdG1VF7H0o1-ycZzSNf-14" style="edgeStyle=orthogonalEdgeStyle;rounded=0;orthogonalLoop=1;jettySize=auto;html=1;entryX=0.5;entryY=0;entryDx=0;entryDy=0;" edge="1" parent="1" source="COdG1VF7H0o1-ycZzSNf-2" target="COdG1VF7H0o1-ycZzSNf-6">
          <mxGeometry relative="1" as="geometry" />
        </mxCell>
        <mxCell id="COdG1VF7H0o1-ycZzSNf-54" style="edgeStyle=orthogonalEdgeStyle;rounded=0;orthogonalLoop=1;jettySize=auto;html=1;exitX=0.75;exitY=0;exitDx=0;exitDy=0;" edge="1" parent="1" source="COdG1VF7H0o1-ycZzSNf-2" target="COdG1VF7H0o1-ycZzSNf-51">
          <mxGeometry relative="1" as="geometry" />
        </mxCell>
        <mxCell id="COdG1VF7H0o1-ycZzSNf-56" style="edgeStyle=orthogonalEdgeStyle;rounded=0;orthogonalLoop=1;jettySize=auto;html=1;exitX=0.25;exitY=0;exitDx=0;exitDy=0;entryX=0.5;entryY=1;entryDx=0;entryDy=0;" edge="1" parent="1" source="COdG1VF7H0o1-ycZzSNf-2" target="COdG1VF7H0o1-ycZzSNf-49">
          <mxGeometry relative="1" as="geometry" />
        </mxCell>
        <mxCell id="COdG1VF7H0o1-ycZzSNf-2" value="" style="rounded=0;whiteSpace=wrap;html=1;" vertex="1" parent="1">
          <mxGeometry x="650" y="220" width="120" height="40" as="geometry" />
        </mxCell>
        <mxCell id="COdG1VF7H0o1-ycZzSNf-74" style="edgeStyle=orthogonalEdgeStyle;rounded=0;orthogonalLoop=1;jettySize=auto;html=1;exitX=0;exitY=0;exitDx=0;exitDy=0;entryX=1;entryY=0.5;entryDx=0;entryDy=0;" edge="1" parent="1" source="COdG1VF7H0o1-ycZzSNf-3" target="COdG1VF7H0o1-ycZzSNf-73">
          <mxGeometry relative="1" as="geometry" />
        </mxCell>
        <mxCell id="COdG1VF7H0o1-ycZzSNf-76" style="edgeStyle=orthogonalEdgeStyle;rounded=0;orthogonalLoop=1;jettySize=auto;html=1;exitX=0;exitY=1;exitDx=0;exitDy=0;entryX=1;entryY=0.5;entryDx=0;entryDy=0;" edge="1" parent="1" source="COdG1VF7H0o1-ycZzSNf-3" target="COdG1VF7H0o1-ycZzSNf-67">
          <mxGeometry relative="1" as="geometry" />
        </mxCell>
        <mxCell id="COdG1VF7H0o1-ycZzSNf-77" style="edgeStyle=orthogonalEdgeStyle;rounded=0;orthogonalLoop=1;jettySize=auto;html=1;exitX=1;exitY=1;exitDx=0;exitDy=0;entryX=0;entryY=0.5;entryDx=0;entryDy=0;" edge="1" parent="1" source="COdG1VF7H0o1-ycZzSNf-3" target="COdG1VF7H0o1-ycZzSNf-66">
          <mxGeometry relative="1" as="geometry" />
        </mxCell>
        <mxCell id="COdG1VF7H0o1-ycZzSNf-97" style="edgeStyle=orthogonalEdgeStyle;rounded=0;orthogonalLoop=1;jettySize=auto;html=1;exitX=0;exitY=0.25;exitDx=0;exitDy=0;entryX=1;entryY=0.5;entryDx=0;entryDy=0;" edge="1" parent="1" source="COdG1VF7H0o1-ycZzSNf-3" target="COdG1VF7H0o1-ycZzSNf-69">
          <mxGeometry relative="1" as="geometry" />
        </mxCell>
        <mxCell id="COdG1VF7H0o1-ycZzSNf-111" style="edgeStyle=orthogonalEdgeStyle;rounded=0;orthogonalLoop=1;jettySize=auto;html=1;exitX=1;exitY=0.75;exitDx=0;exitDy=0;entryX=0.5;entryY=0;entryDx=0;entryDy=0;" edge="1" parent="1" source="COdG1VF7H0o1-ycZzSNf-3" target="COdG1VF7H0o1-ycZzSNf-7">
          <mxGeometry relative="1" as="geometry" />
        </mxCell>
        <mxCell id="COdG1VF7H0o1-ycZzSNf-115" style="edgeStyle=orthogonalEdgeStyle;rounded=0;orthogonalLoop=1;jettySize=auto;html=1;exitX=1;exitY=0.25;exitDx=0;exitDy=0;entryX=0.5;entryY=1;entryDx=0;entryDy=0;" edge="1" parent="1" source="COdG1VF7H0o1-ycZzSNf-3" target="COdG1VF7H0o1-ycZzSNf-110">
          <mxGeometry relative="1" as="geometry" />
        </mxCell>
        <mxCell id="COdG1VF7H0o1-ycZzSNf-3" value="" style="rounded=0;whiteSpace=wrap;html=1;" vertex="1" parent="1">
          <mxGeometry x="650" y="500" width="120" height="40" as="geometry" />
        </mxCell>
        <mxCell id="COdG1VF7H0o1-ycZzSNf-4" value="" style="rounded=0;whiteSpace=wrap;html=1;" vertex="1" parent="1">
          <mxGeometry x="1120" y="220" width="120" height="40" as="geometry" />
        </mxCell>
        <mxCell id="COdG1VF7H0o1-ycZzSNf-13" style="edgeStyle=orthogonalEdgeStyle;rounded=0;orthogonalLoop=1;jettySize=auto;html=1;exitX=1;exitY=0.5;exitDx=0;exitDy=0;" edge="1" parent="1" source="COdG1VF7H0o1-ycZzSNf-23" target="COdG1VF7H0o1-ycZzSNf-4">
          <mxGeometry relative="1" as="geometry" />
        </mxCell>
        <mxCell id="COdG1VF7H0o1-ycZzSNf-5" value="" style="rhombus;whiteSpace=wrap;html=1;" vertex="1" parent="1">
          <mxGeometry x="920" y="200" width="80" height="80" as="geometry" />
        </mxCell>
        <mxCell id="COdG1VF7H0o1-ycZzSNf-15" style="edgeStyle=orthogonalEdgeStyle;rounded=0;orthogonalLoop=1;jettySize=auto;html=1;" edge="1" parent="1" source="COdG1VF7H0o1-ycZzSNf-6" target="COdG1VF7H0o1-ycZzSNf-3">
          <mxGeometry relative="1" as="geometry" />
        </mxCell>
        <mxCell id="COdG1VF7H0o1-ycZzSNf-6" value="" style="rhombus;whiteSpace=wrap;html=1;" vertex="1" parent="1">
          <mxGeometry x="670" y="320" width="80" height="80" as="geometry" />
        </mxCell>
        <mxCell id="COdG1VF7H0o1-ycZzSNf-20" style="edgeStyle=orthogonalEdgeStyle;rounded=0;orthogonalLoop=1;jettySize=auto;html=1;" edge="1" parent="1" source="COdG1VF7H0o1-ycZzSNf-7" target="COdG1VF7H0o1-ycZzSNf-8">
          <mxGeometry relative="1" as="geometry" />
        </mxCell>
        <mxCell id="COdG1VF7H0o1-ycZzSNf-7" value="" style="rhombus;whiteSpace=wrap;html=1;" vertex="1" parent="1">
          <mxGeometry x="1080" y="560" width="80" height="80" as="geometry" />
        </mxCell>
        <mxCell id="COdG1VF7H0o1-ycZzSNf-89" style="edgeStyle=orthogonalEdgeStyle;rounded=0;orthogonalLoop=1;jettySize=auto;html=1;exitX=0.75;exitY=0;exitDx=0;exitDy=0;entryX=0;entryY=0.5;entryDx=0;entryDy=0;" edge="1" parent="1" source="COdG1VF7H0o1-ycZzSNf-8" target="COdG1VF7H0o1-ycZzSNf-85">
          <mxGeometry relative="1" as="geometry" />
        </mxCell>
        <mxCell id="COdG1VF7H0o1-ycZzSNf-90" style="edgeStyle=orthogonalEdgeStyle;rounded=0;orthogonalLoop=1;jettySize=auto;html=1;exitX=1;exitY=0;exitDx=0;exitDy=0;entryX=0;entryY=0.5;entryDx=0;entryDy=0;" edge="1" parent="1" source="COdG1VF7H0o1-ycZzSNf-8" target="COdG1VF7H0o1-ycZzSNf-84">
          <mxGeometry relative="1" as="geometry" />
        </mxCell>
        <mxCell id="COdG1VF7H0o1-ycZzSNf-91" style="edgeStyle=orthogonalEdgeStyle;rounded=0;orthogonalLoop=1;jettySize=auto;html=1;exitX=1;exitY=0.5;exitDx=0;exitDy=0;entryX=0;entryY=0.5;entryDx=0;entryDy=0;" edge="1" parent="1" source="COdG1VF7H0o1-ycZzSNf-8" target="COdG1VF7H0o1-ycZzSNf-82">
          <mxGeometry relative="1" as="geometry" />
        </mxCell>
        <mxCell id="COdG1VF7H0o1-ycZzSNf-92" style="edgeStyle=orthogonalEdgeStyle;rounded=0;orthogonalLoop=1;jettySize=auto;html=1;exitX=1;exitY=1;exitDx=0;exitDy=0;entryX=0;entryY=0.5;entryDx=0;entryDy=0;" edge="1" parent="1" source="COdG1VF7H0o1-ycZzSNf-8" target="COdG1VF7H0o1-ycZzSNf-87">
          <mxGeometry relative="1" as="geometry" />
        </mxCell>
        <mxCell id="COdG1VF7H0o1-ycZzSNf-8" value="" style="rounded=0;whiteSpace=wrap;html=1;" vertex="1" parent="1">
          <mxGeometry x="1250" y="755" width="120" height="40" as="geometry" />
        </mxCell>
        <mxCell id="COdG1VF7H0o1-ycZzSNf-9" value="" style="rhombus;whiteSpace=wrap;html=1;" vertex="1" parent="1">
          <mxGeometry x="390" y="730" width="80" height="80" as="geometry" />
        </mxCell>
        <mxCell id="COdG1VF7H0o1-ycZzSNf-11" value="" style="endArrow=classic;html=1;rounded=0;exitX=0.5;exitY=0;exitDx=0;exitDy=0;entryX=0.5;entryY=1;entryDx=0;entryDy=0;" edge="1" parent="1" source="COdG1VF7H0o1-ycZzSNf-9" target="COdG1VF7H0o1-ycZzSNf-1">
          <mxGeometry width="50" height="50" relative="1" as="geometry">
            <mxPoint x="420" y="430" as="sourcePoint" />
            <mxPoint x="470" y="380" as="targetPoint" />
          </mxGeometry>
        </mxCell>
        <mxCell id="COdG1VF7H0o1-ycZzSNf-44" style="edgeStyle=orthogonalEdgeStyle;rounded=0;orthogonalLoop=1;jettySize=auto;html=1;exitX=0;exitY=1;exitDx=0;exitDy=0;entryX=1;entryY=0.5;entryDx=0;entryDy=0;" edge="1" parent="1" source="COdG1VF7H0o1-ycZzSNf-21" target="COdG1VF7H0o1-ycZzSNf-40">
          <mxGeometry relative="1" as="geometry" />
        </mxCell>
        <mxCell id="COdG1VF7H0o1-ycZzSNf-21" value="Usuario" style="text;html=1;strokeColor=none;fillColor=none;align=center;verticalAlign=middle;whiteSpace=wrap;rounded=0;" vertex="1" parent="1">
          <mxGeometry x="400" y="270" width="60" height="30" as="geometry" />
        </mxCell>
        <mxCell id="COdG1VF7H0o1-ycZzSNf-53" style="edgeStyle=orthogonalEdgeStyle;rounded=0;orthogonalLoop=1;jettySize=auto;html=1;exitX=0.5;exitY=0;exitDx=0;exitDy=0;entryX=0.5;entryY=1;entryDx=0;entryDy=0;" edge="1" parent="1" source="COdG1VF7H0o1-ycZzSNf-22" target="COdG1VF7H0o1-ycZzSNf-48">
          <mxGeometry relative="1" as="geometry" />
        </mxCell>
        <mxCell id="COdG1VF7H0o1-ycZzSNf-132" style="edgeStyle=orthogonalEdgeStyle;rounded=0;orthogonalLoop=1;jettySize=auto;html=1;exitX=0.5;exitY=0;exitDx=0;exitDy=0;entryX=0.5;entryY=1;entryDx=0;entryDy=0;" edge="1" parent="1" source="COdG1VF7H0o1-ycZzSNf-22" target="COdG1VF7H0o1-ycZzSNf-50">
          <mxGeometry relative="1" as="geometry" />
        </mxCell>
        <mxCell id="COdG1VF7H0o1-ycZzSNf-22" value="Time" style="text;html=1;strokeColor=none;fillColor=none;align=center;verticalAlign=middle;whiteSpace=wrap;rounded=0;" vertex="1" parent="1">
          <mxGeometry x="680" y="230" width="60" height="25" as="geometry" />
        </mxCell>
        <mxCell id="COdG1VF7H0o1-ycZzSNf-64" style="edgeStyle=orthogonalEdgeStyle;rounded=0;orthogonalLoop=1;jettySize=auto;html=1;exitX=0.75;exitY=0;exitDx=0;exitDy=0;entryX=0.5;entryY=1;entryDx=0;entryDy=0;" edge="1" parent="1" source="COdG1VF7H0o1-ycZzSNf-24" target="COdG1VF7H0o1-ycZzSNf-61">
          <mxGeometry relative="1" as="geometry" />
        </mxCell>
        <mxCell id="COdG1VF7H0o1-ycZzSNf-65" style="edgeStyle=orthogonalEdgeStyle;rounded=0;orthogonalLoop=1;jettySize=auto;html=1;exitX=0.25;exitY=0;exitDx=0;exitDy=0;entryX=0.5;entryY=1;entryDx=0;entryDy=0;" edge="1" parent="1" source="COdG1VF7H0o1-ycZzSNf-24" target="COdG1VF7H0o1-ycZzSNf-60">
          <mxGeometry relative="1" as="geometry" />
        </mxCell>
        <mxCell id="COdG1VF7H0o1-ycZzSNf-24" value="Jogador" style="text;html=1;strokeColor=none;fillColor=none;align=center;verticalAlign=middle;whiteSpace=wrap;rounded=0;" vertex="1" parent="1">
          <mxGeometry x="1150" y="225" width="60" height="30" as="geometry" />
        </mxCell>
        <mxCell id="COdG1VF7H0o1-ycZzSNf-25" value="Possui" style="text;html=1;strokeColor=none;fillColor=none;align=center;verticalAlign=middle;whiteSpace=wrap;rounded=0;" vertex="1" parent="1">
          <mxGeometry x="680" y="345" width="60" height="30" as="geometry" />
        </mxCell>
        <mxCell id="COdG1VF7H0o1-ycZzSNf-101" style="edgeStyle=orthogonalEdgeStyle;rounded=0;orthogonalLoop=1;jettySize=auto;html=1;exitX=1;exitY=0.5;exitDx=0;exitDy=0;entryX=0;entryY=0.5;entryDx=0;entryDy=0;" edge="1" parent="1" source="COdG1VF7H0o1-ycZzSNf-26" target="COdG1VF7H0o1-ycZzSNf-8">
          <mxGeometry relative="1" as="geometry" />
        </mxCell>
        <mxCell id="COdG1VF7H0o1-ycZzSNf-26" value="Cadastro" style="text;html=1;strokeColor=none;fillColor=none;align=center;verticalAlign=middle;whiteSpace=wrap;rounded=0;" vertex="1" parent="1">
          <mxGeometry x="400" y="760" width="60" height="30" as="geometry" />
        </mxCell>
        <mxCell id="COdG1VF7H0o1-ycZzSNf-78" style="edgeStyle=orthogonalEdgeStyle;rounded=0;orthogonalLoop=1;jettySize=auto;html=1;exitX=0;exitY=1;exitDx=0;exitDy=0;entryX=1;entryY=0.5;entryDx=0;entryDy=0;" edge="1" parent="1" source="COdG1VF7H0o1-ycZzSNf-27" target="COdG1VF7H0o1-ycZzSNf-68">
          <mxGeometry relative="1" as="geometry" />
        </mxCell>
        <mxCell id="COdG1VF7H0o1-ycZzSNf-79" style="edgeStyle=orthogonalEdgeStyle;rounded=0;orthogonalLoop=1;jettySize=auto;html=1;exitX=1;exitY=1;exitDx=0;exitDy=0;entryX=0;entryY=0.5;entryDx=0;entryDy=0;" edge="1" parent="1" source="COdG1VF7H0o1-ycZzSNf-27" target="COdG1VF7H0o1-ycZzSNf-72">
          <mxGeometry relative="1" as="geometry" />
        </mxCell>
        <mxCell id="COdG1VF7H0o1-ycZzSNf-117" style="edgeStyle=orthogonalEdgeStyle;rounded=0;orthogonalLoop=1;jettySize=auto;html=1;exitX=0.5;exitY=1;exitDx=0;exitDy=0;entryX=0.5;entryY=0;entryDx=0;entryDy=0;" edge="1" parent="1" source="COdG1VF7H0o1-ycZzSNf-27" target="COdG1VF7H0o1-ycZzSNf-81">
          <mxGeometry relative="1" as="geometry" />
        </mxCell>
        <mxCell id="COdG1VF7H0o1-ycZzSNf-27" value="Partida" style="text;html=1;strokeColor=none;fillColor=none;align=center;verticalAlign=middle;whiteSpace=wrap;rounded=0;" vertex="1" parent="1">
          <mxGeometry x="680" y="510" width="60" height="30" as="geometry" />
        </mxCell>
        <mxCell id="COdG1VF7H0o1-ycZzSNf-28" value="Possui" style="text;html=1;strokeColor=none;fillColor=none;align=center;verticalAlign=middle;whiteSpace=wrap;rounded=0;" vertex="1" parent="1">
          <mxGeometry x="1090" y="585" width="60" height="30" as="geometry" />
        </mxCell>
        <mxCell id="COdG1VF7H0o1-ycZzSNf-93" style="edgeStyle=orthogonalEdgeStyle;rounded=0;orthogonalLoop=1;jettySize=auto;html=1;exitX=1;exitY=1;exitDx=0;exitDy=0;entryX=0;entryY=0.5;entryDx=0;entryDy=0;" edge="1" parent="1" source="COdG1VF7H0o1-ycZzSNf-29" target="COdG1VF7H0o1-ycZzSNf-86">
          <mxGeometry relative="1" as="geometry" />
        </mxCell>
        <mxCell id="COdG1VF7H0o1-ycZzSNf-94" style="edgeStyle=orthogonalEdgeStyle;rounded=0;orthogonalLoop=1;jettySize=auto;html=1;exitX=0.75;exitY=1;exitDx=0;exitDy=0;entryX=0;entryY=0.5;entryDx=0;entryDy=0;" edge="1" parent="1" source="COdG1VF7H0o1-ycZzSNf-29" target="COdG1VF7H0o1-ycZzSNf-88">
          <mxGeometry relative="1" as="geometry" />
        </mxCell>
        <mxCell id="COdG1VF7H0o1-ycZzSNf-29" value="CompetiÃ§Ã£o" style="text;html=1;strokeColor=none;fillColor=none;align=center;verticalAlign=middle;whiteSpace=wrap;rounded=0;" vertex="1" parent="1">
          <mxGeometry x="1280" y="760" width="60" height="30" as="geometry" />
        </mxCell>
        <mxCell id="COdG1VF7H0o1-ycZzSNf-33" value="&lt;font style=&quot;font-size: 14px;&quot;&gt;UsuÃ¡rio&lt;/font&gt;" style="ellipse;whiteSpace=wrap;html=1;rounded=0;" vertex="1" parent="1">
          <mxGeometry x="210" y="255" width="80" height="50" as="geometry" />
        </mxCell>
        <mxCell id="COdG1VF7H0o1-ycZzSNf-37" value="&lt;font style=&quot;font-size: 14px;&quot;&gt;Nome&lt;/font&gt;" style="ellipse;whiteSpace=wrap;html=1;rounded=0;" vertex="1" parent="1">
          <mxGeometry x="230" y="200" width="80" height="50" as="geometry" />
        </mxCell>
        <mxCell id="COdG1VF7H0o1-ycZzSNf-38" value="&lt;font style=&quot;font-size: 14px;&quot;&gt;Senha&lt;/font&gt;" style="ellipse;whiteSpace=wrap;html=1;rounded=0;" vertex="1" parent="1">
          <mxGeometry x="220" y="310" width="80" height="50" as="geometry" />
        </mxCell>
        <mxCell id="COdG1VF7H0o1-ycZzSNf-40" value="&lt;font style=&quot;font-size: 14px;&quot;&gt;Avatar&lt;/font&gt;" style="ellipse;whiteSpace=wrap;html=1;rounded=0;" vertex="1" parent="1">
          <mxGeometry x="260" y="360" width="80" height="50" as="geometry" />
        </mxCell>
        <mxCell id="COdG1VF7H0o1-ycZzSNf-46" value="Email" style="ellipse;whiteSpace=wrap;html=1;align=center;fontStyle=4;" vertex="1" parent="1">
          <mxGeometry x="250" y="150" width="100" height="40" as="geometry" />
        </mxCell>
        <mxCell id="COdG1VF7H0o1-ycZzSNf-48" value="Id" style="ellipse;whiteSpace=wrap;html=1;align=center;fontStyle=4;" vertex="1" parent="1">
          <mxGeometry x="590" y="80" width="100" height="40" as="geometry" />
        </mxCell>
        <mxCell id="COdG1VF7H0o1-ycZzSNf-49" value="Nome" style="ellipse;whiteSpace=wrap;html=1;align=center;" vertex="1" parent="1">
          <mxGeometry x="500" y="120" width="100" height="40" as="geometry" />
        </mxCell>
        <mxCell id="COdG1VF7H0o1-ycZzSNf-50" value="Imagem" style="ellipse;whiteSpace=wrap;html=1;align=center;" vertex="1" parent="1">
          <mxGeometry x="727" y="80" width="100" height="40" as="geometry" />
        </mxCell>
        <mxCell id="COdG1VF7H0o1-ycZzSNf-51" value="Abreviacao" style="ellipse;whiteSpace=wrap;html=1;align=center;" vertex="1" parent="1">
          <mxGeometry x="810" y="120" width="100" height="40" as="geometry" />
        </mxCell>
        <mxCell id="COdG1VF7H0o1-ycZzSNf-23" value="Possui" style="text;html=1;strokeColor=none;fillColor=none;align=center;verticalAlign=middle;whiteSpace=wrap;rounded=0;" vertex="1" parent="1">
          <mxGeometry x="930" y="225" width="60" height="30" as="geometry" />
        </mxCell>
        <mxCell id="COdG1VF7H0o1-ycZzSNf-60" value="Id" style="ellipse;whiteSpace=wrap;html=1;align=center;fontStyle=4;" vertex="1" parent="1">
          <mxGeometry x="1070" y="140" width="100" height="40" as="geometry" />
        </mxCell>
        <mxCell id="COdG1VF7H0o1-ycZzSNf-61" value="Nome&amp;nbsp;" style="ellipse;whiteSpace=wrap;html=1;align=center;" vertex="1" parent="1">
          <mxGeometry x="1190" y="140" width="100" height="40" as="geometry" />
        </mxCell>
        <mxCell id="COdG1VF7H0o1-ycZzSNf-66" value="Data" style="ellipse;whiteSpace=wrap;html=1;align=center;" vertex="1" parent="1">
          <mxGeometry x="860" y="550" width="100" height="40" as="geometry" />
        </mxCell>
        <mxCell id="COdG1VF7H0o1-ycZzSNf-67" value="Placar" style="ellipse;whiteSpace=wrap;html=1;align=center;" vertex="1" parent="1">
          <mxGeometry x="470" y="550" width="100" height="40" as="geometry" />
        </mxCell>
        <mxCell id="COdG1VF7H0o1-ycZzSNf-68" value="Local" style="ellipse;whiteSpace=wrap;html=1;align=center;" vertex="1" parent="1">
          <mxGeometry x="560" y="590" width="100" height="40" as="geometry" />
        </mxCell>
        <mxCell id="COdG1VF7H0o1-ycZzSNf-69" value="Hora_Pont" style="ellipse;whiteSpace=wrap;html=1;align=center;" vertex="1" parent="1">
          <mxGeometry x="460" y="490" width="100" height="40" as="geometry" />
        </mxCell>
        <mxCell id="COdG1VF7H0o1-ycZzSNf-72" value="Nome" style="ellipse;whiteSpace=wrap;html=1;align=center;" vertex="1" parent="1">
          <mxGeometry x="760" y="590" width="100" height="40" as="geometry" />
        </mxCell>
        <mxCell id="COdG1VF7H0o1-ycZzSNf-73" value="HorÃ¡rio" style="ellipse;whiteSpace=wrap;html=1;align=center;" vertex="1" parent="1">
          <mxGeometry x="470" y="440" width="100" height="40" as="geometry" />
        </mxCell>
        <mxCell id="COdG1VF7H0o1-ycZzSNf-81" value="Id" style="ellipse;whiteSpace=wrap;html=1;align=center;fontStyle=4;" vertex="1" parent="1">
          <mxGeometry x="660" y="640" width="100" height="40" as="geometry" />
        </mxCell>
        <mxCell id="COdG1VF7H0o1-ycZzSNf-82" value="Id" style="ellipse;whiteSpace=wrap;html=1;align=center;fontStyle=4;" vertex="1" parent="1">
          <mxGeometry x="1490" y="755" width="100" height="40" as="geometry" />
        </mxCell>
        <mxCell id="COdG1VF7H0o1-ycZzSNf-84" value="Quantidade" style="ellipse;whiteSpace=wrap;html=1;align=center;" vertex="1" parent="1">
          <mxGeometry x="1460" y="700" width="100" height="40" as="geometry" />
        </mxCell>
        <mxCell id="COdG1VF7H0o1-ycZzSNf-85" value="PremiaÃ§Ã£o" style="ellipse;whiteSpace=wrap;html=1;align=center;" vertex="1" parent="1">
          <mxGeometry x="1425" y="660" width="100" height="40" as="geometry" />
        </mxCell>
        <mxCell id="COdG1VF7H0o1-ycZzSNf-86" value="DescriÃ§Ã£o" style="ellipse;whiteSpace=wrap;html=1;align=center;" vertex="1" parent="1">
          <mxGeometry x="1460" y="850" width="100" height="40" as="geometry" />
        </mxCell>
        <mxCell id="COdG1VF7H0o1-ycZzSNf-87" value="Nome" style="ellipse;whiteSpace=wrap;html=1;align=center;" vertex="1" parent="1">
          <mxGeometry x="1490" y="800" width="100" height="40" as="geometry" />
        </mxCell>
        <mxCell id="COdG1VF7H0o1-ycZzSNf-88" value="Forma_competiÃ§Ã£o" style="ellipse;whiteSpace=wrap;html=1;align=center;" vertex="1" parent="1">
          <mxGeometry x="1425" y="900" width="130" height="40" as="geometry" />
        </mxCell>
        <mxCell id="COdG1VF7H0o1-ycZzSNf-131" style="edgeStyle=orthogonalEdgeStyle;rounded=0;orthogonalLoop=1;jettySize=auto;html=1;exitX=1;exitY=0.5;exitDx=0;exitDy=0;entryX=0;entryY=0.5;entryDx=0;entryDy=0;" edge="1" parent="1" source="COdG1VF7H0o1-ycZzSNf-110" target="COdG1VF7H0o1-ycZzSNf-116">
          <mxGeometry relative="1" as="geometry" />
        </mxCell>
        <mxCell id="COdG1VF7H0o1-ycZzSNf-110" value="Possui" style="rhombus;whiteSpace=wrap;html=1;" vertex="1" parent="1">
          <mxGeometry x="1080" y="400" width="80" height="80" as="geometry" />
        </mxCell>
        <mxCell id="COdG1VF7H0o1-ycZzSNf-125" style="edgeStyle=orthogonalEdgeStyle;rounded=0;orthogonalLoop=1;jettySize=auto;html=1;exitX=1;exitY=0.5;exitDx=0;exitDy=0;entryX=0;entryY=0.5;entryDx=0;entryDy=0;" edge="1" parent="1" source="COdG1VF7H0o1-ycZzSNf-116" target="COdG1VF7H0o1-ycZzSNf-124">
          <mxGeometry relative="1" as="geometry" />
        </mxCell>
        <mxCell id="COdG1VF7H0o1-ycZzSNf-127" style="edgeStyle=orthogonalEdgeStyle;rounded=0;orthogonalLoop=1;jettySize=auto;html=1;exitX=1;exitY=0;exitDx=0;exitDy=0;entryX=0;entryY=0.5;entryDx=0;entryDy=0;" edge="1" parent="1" source="COdG1VF7H0o1-ycZzSNf-116" target="COdG1VF7H0o1-ycZzSNf-121">
          <mxGeometry relative="1" as="geometry" />
        </mxCell>
        <mxCell id="COdG1VF7H0o1-ycZzSNf-128" style="edgeStyle=orthogonalEdgeStyle;rounded=0;orthogonalLoop=1;jettySize=auto;html=1;exitX=0.5;exitY=0;exitDx=0;exitDy=0;entryX=0;entryY=0.5;entryDx=0;entryDy=0;" edge="1" parent="1" source="COdG1VF7H0o1-ycZzSNf-116" target="COdG1VF7H0o1-ycZzSNf-118">
          <mxGeometry relative="1" as="geometry" />
        </mxCell>
        <mxCell id="COdG1VF7H0o1-ycZzSNf-129" style="edgeStyle=orthogonalEdgeStyle;rounded=0;orthogonalLoop=1;jettySize=auto;html=1;exitX=1;exitY=1;exitDx=0;exitDy=0;entryX=0;entryY=0.5;entryDx=0;entryDy=0;" edge="1" parent="1" source="COdG1VF7H0o1-ycZzSNf-116" target="COdG1VF7H0o1-ycZzSNf-122">
          <mxGeometry relative="1" as="geometry" />
        </mxCell>
        <mxCell id="COdG1VF7H0o1-ycZzSNf-130" style="edgeStyle=orthogonalEdgeStyle;rounded=0;orthogonalLoop=1;jettySize=auto;html=1;exitX=0.5;exitY=1;exitDx=0;exitDy=0;entryX=0;entryY=0.5;entryDx=0;entryDy=0;" edge="1" parent="1" source="COdG1VF7H0o1-ycZzSNf-116" target="COdG1VF7H0o1-ycZzSNf-119">
          <mxGeometry relative="1" as="geometry" />
        </mxCell>
        <mxCell id="COdG1VF7H0o1-ycZzSNf-116" value="EstÃ¡tistica" style="rounded=0;whiteSpace=wrap;html=1;" vertex="1" parent="1">
          <mxGeometry x="1250" y="420" width="120" height="40" as="geometry" />
        </mxCell>
        <mxCell id="COdG1VF7H0o1-ycZzSNf-118" value="Cartao_amarelo" style="ellipse;whiteSpace=wrap;html=1;align=center;" vertex="1" parent="1">
          <mxGeometry x="1330" y="320" width="100" height="40" as="geometry" />
        </mxCell>
        <mxCell id="COdG1VF7H0o1-ycZzSNf-119" value="Faltas" style="ellipse;whiteSpace=wrap;html=1;align=center;" vertex="1" parent="1">
          <mxGeometry x="1330" y="520" width="100" height="40" as="geometry" />
        </mxCell>
        <mxCell id="COdG1VF7H0o1-ycZzSNf-121" value="Chutes_gol" style="ellipse;whiteSpace=wrap;html=1;align=center;" vertex="1" parent="1">
          <mxGeometry x="1410" y="365" width="100" height="40" as="geometry" />
        </mxCell>
        <mxCell id="COdG1VF7H0o1-ycZzSNf-122" value="Penaltis" style="ellipse;whiteSpace=wrap;html=1;align=center;" vertex="1" parent="1">
          <mxGeometry x="1425" y="480" width="100" height="40" as="geometry" />
        </mxCell>
        <mxCell id="COdG1VF7H0o1-ycZzSNf-124" value="Id" style="ellipse;whiteSpace=wrap;html=1;align=center;fontStyle=4;" vertex="1" parent="1">
          <mxGeometry x="1455" y="420" width="100" height="40" as="geometry" />
        </mxCell>
      </root>
    </mxGraphModel>
  </diagram>
</mxfile>
